<svg xmlns="http://www.w3.org/2000/svg" viewBox="0 0 64.04 53.29"><defs><style>.cls-1{fill:#fff;fill-rule:evenodd;}</style></defs><g id="レイヤー_2" data-name="レイヤー 2"><g id="レイヤー_1-2" data-name="レイヤー 1"><g id="レイヤー_2-2" data-name="レイヤー 2"><g id="レイヤー_1-2-2" data-name="レイヤー 1-2"><g id="Icons"><g id="Black"><path id="Twitter" class="cls-1" d="M64,6.31a25.38,25.38,0,0,1-7.54,2.12A13.4,13.4,0,0,0,62.23,1a25.63,25.63,0,0,1-8.34,3.26A12.92,12.92,0,0,0,44.31,0,13.3,13.3,0,0,0,31.18,13.46a13.82,13.82,0,0,0,.34,3.07A37,37,0,0,1,4.46,2.46a13.71,13.71,0,0,0,4.06,18,13,13,0,0,1-5.95-1.68v.17a13.4,13.4,0,0,0,10.54,13.2,13.11,13.11,0,0,1-5.94.23,13.19,13.19,0,0,0,12.27,9.35A26,26,0,0,1,3.13,47.47,27.24,27.24,0,0,1,0,47.29a36.64,36.64,0,0,0,20.13,6c24.15,0,37.36-20.51,37.36-38.3V13.24a26.78,26.78,0,0,0,6.55-7"/></g></g></g></g></g></g></svg>