<svg xmlns="http://www.w3.org/2000/svg" viewBox="0 0 477.87 118.16"><defs><style>.cls-1{fill:#fff;fill-rule:evenodd;}</style></defs><g id="レイヤー_2" data-name="レイヤー 2"><g id="レイヤー_1-2" data-name="レイヤー 1"><g id="black_logo" data-name="black/logo"><path id="Shape" class="cls-1" d="M277.62,31.25c21.71,0,38.09,15.88,38.09,36.82s-16.38,36.83-38.09,36.83S239.53,89,239.53,68.07,255.91,31.25,277.62,31.25Zm166.05.34c23.47,0,34.2,18.24,34.2,38.17a38.89,38.89,0,0,1-.13,3.89c-.07.79-.45,1.29-1.19,1.34H428.63c1.95,8.66,7.6,13.85,17.23,13.85,5.83,0,10.6-1.48,16.3-6.33a1.26,1.26,0,0,1,1.73-.1l.13.1,9.29,8.36a1.25,1.25,0,0,1,.17,1.94c-7,8-16.05,12.08-27.87,12.08-21.28,0-36.74-15-36.74-36.74C408.87,48.14,423.14,31.59,443.67,31.59ZM365.8,14.87a1.24,1.24,0,0,1,1.35,1.35V32.94h15.2a1.25,1.25,0,0,1,1.35,1.35V48.48a1.24,1.24,0,0,1-1.35,1.35h-15.2V80.49c0,4.65,2.07,6.84,6.16,6.84a17.18,17.18,0,0,0,8.53-1.77c.93-.47,1.61-.17,1.61.76V99.58a1.88,1.88,0,0,1-.93,1.69c-3.68,2.28-8.53,3.63-14.87,3.63-10.94,0-18.75-3.93-20.23-16.43a52.82,52.82,0,0,1-.2-5.48V49.83h-7.1a1.24,1.24,0,0,1-1.35-1.35V34.29a1.24,1.24,0,0,1,1.35-1.35h7.1V16.22a1.24,1.24,0,0,1,1.35-1.35ZM190,31.25c12.7,0,20.9,7.14,23.18,19.09a43.54,43.54,0,0,1,.63,8.15v43.37a1.24,1.24,0,0,1-1.35,1.35H195.27a1.25,1.25,0,0,1-1.35-1.35V63.68c0-9.37-4.48-14.35-12.08-14.35s-12.41,4.89-12.41,14.35v38.18a1.25,1.25,0,0,1-1.36,1.35H150.85a1.25,1.25,0,0,1-1.36-1.35V34.29a1.25,1.25,0,0,1,1.36-1.35h17.22a1.25,1.25,0,0,1,1.36,1.35v8C176.06,33.45,183.78,31.25,190,31.25Zm87.58,17.23c-11.32,0-18.41,9.12-18.41,19.59s7.09,19.6,18.41,19.6S296,78.55,296,68.07,288.94,48.48,277.62,48.48Zm166.05-.93c-7.95,0-13.1,5.4-15.36,14.6l-.1.43h30.28C457.09,53.8,452.28,47.55,443.67,47.55Z"/><path id="Shape-2" data-name="Shape" class="cls-1" d="M44.93,52H31A9.05,9.05,0,0,1,28,51.69a6,6,0,0,1,0-11.32A9.05,9.05,0,0,1,31,40h9V31a9,9,0,0,1,.34-3,6,6,0,0,1,11.32,0A9,9,0,0,1,52,31V44.93a11.46,11.46,0,0,1-.17,2.45,6.2,6.2,0,0,1-4.48,4.48,11.46,11.46,0,0,1-2.45.17ZM89.7,103.21H15V37.37a2.94,2.94,0,0,1,.89-2.15L35.22,15.84A2.94,2.94,0,0,1,37.37,15H89.7ZM3.63,26.31A11.83,11.83,0,0,0,.08,33.57C0,34,0,34.71,0,35.39v74.45a16.71,16.71,0,0,0,.08,1.86,7.52,7.52,0,0,0,6.38,6.37,13.93,13.93,0,0,0,1.86.09h88a14,14,0,0,0,1.86-.09,7.52,7.52,0,0,0,6.37-6.37,16.71,16.71,0,0,0,.08-1.86V8.32a16.71,16.71,0,0,0-.08-1.86A7.52,7.52,0,0,0,98.19.09,14,14,0,0,0,96.33,0H35.39C34.71,0,34,0,33.57.09a11.77,11.77,0,0,0-7.26,3.54Z"/></g></g></g></svg>