<svg xmlns="http://www.w3.org/2000/svg" viewBox="0 0 64 53.33"><defs><style>.cls-1{fill:#00000e;fill-rule:evenodd;}</style></defs><g id="レイヤー_2" data-name="レイヤー 2"><g id="レイヤー_1-2" data-name="レイヤー 1"><g id="Icons"><g id="Black"><path id="Twitter" class="cls-1" d="M64,6.31a25.52,25.52,0,0,1-7.54,2.12A13.42,13.42,0,0,0,62.23,1a25.73,25.73,0,0,1-8.34,3.26A12.93,12.93,0,0,0,44.31,0,13.3,13.3,0,0,0,31.18,13.46a14.09,14.09,0,0,0,.34,3.07A37,37,0,0,1,4.46,2.46,13.59,13.59,0,0,0,2.68,9.23,13.57,13.57,0,0,0,8.52,20.44a13,13,0,0,1-5.95-1.68v.17a13.4,13.4,0,0,0,10.54,13.2,13,13,0,0,1-5.94.23,13.2,13.2,0,0,0,12.27,9.35A25.94,25.94,0,0,1,3.13,47.47,27,27,0,0,1,0,47.29a36.59,36.59,0,0,0,20.13,6c24.15,0,37.36-20.51,37.36-38.3,0-.59,0-1.17,0-1.75a26.84,26.84,0,0,0,6.55-7"/></g></g></g></g></svg>