<svg id="レイヤー_1" data-name="レイヤー 1" xmlns="http://www.w3.org/2000/svg" viewBox="0 0 500 500"><defs><style>.cls-1{fill:#1c1e1f;}</style></defs><path class="cls-1" d="M250.39.11C112.56.11.78,111.88.78,249.72S112.56,499.33,250.39,499.33,500,387.55,500,249.72,388.23.11,250.39.11Zm114,194.62q.17,3.68.16,7.4c0,75.71-57.62,163-163,163h0a162.16,162.16,0,0,1-87.81-25.73,116.27,116.27,0,0,0,13.66.79,114.94,114.94,0,0,0,71.16-24.53A57.34,57.34,0,0,1,145,275.88a57,57,0,0,0,25.87-1,57.31,57.31,0,0,1-46-56.16c0-.26,0-.49,0-.73a56.93,56.93,0,0,0,26,7.16,57.34,57.34,0,0,1-17.74-76.49,162.67,162.67,0,0,0,118.09,59.87,57.33,57.33,0,0,1,97.63-52.25,115.11,115.11,0,0,0,36.38-13.91A57.48,57.48,0,0,1,360,174.08a114.52,114.52,0,0,0,32.9-9A116.51,116.51,0,0,1,364.36,194.73Z"/></svg>