<?xml version="1.0" encoding="utf-8"?>
<!-- Generator: Adobe Illustrator 25.0.1, SVG Export Plug-In . SVG Version: 6.00 Build 0)  -->
<svg version="1.1" id="レイヤー_1" xmlns="http://www.w3.org/2000/svg" xmlns:xlink="http://www.w3.org/1999/xlink" x="0px"
	 y="0px" viewBox="0 0 500 500" style="enable-background:new 0 0 500 500;" xml:space="preserve">
<style type="text/css">
	.st0{fill:#1C1E1F;}
</style>
<g>
	<path class="st0" d="M297.53,250c0,26.43-21.42,47.85-47.85,47.85s-47.85-21.42-47.85-47.85s21.42-47.85,47.85-47.85
		S297.53,223.57,297.53,250z"/>
	<path class="st0" d="M361.59,165.34c-2.3-6.23-5.97-11.88-10.74-16.51c-4.63-4.77-10.27-8.44-16.51-10.74
		c-5.06-1.96-12.66-4.3-26.65-4.94c-15.14-0.69-19.68-0.84-58.01-0.84c-38.33,0-42.87,0.14-58.01,0.84
		c-14,0.64-21.6,2.98-26.65,4.94c-6.24,2.3-11.88,5.97-16.51,10.74c-4.77,4.63-8.44,10.27-10.74,16.51
		c-1.96,5.06-4.3,12.66-4.94,26.66c-0.69,15.14-0.84,19.68-0.84,58.01c0,38.33,0.15,42.87,0.84,58.01c0.64,14,2.98,21.6,4.94,26.65
		c2.3,6.24,5.97,11.88,10.74,16.51c4.63,4.77,10.27,8.44,16.51,10.74c5.06,1.97,12.66,4.31,26.66,4.94
		c15.14,0.69,19.67,0.84,58.01,0.84c38.34,0,42.88-0.14,58.01-0.84c14-0.64,21.6-2.98,26.66-4.94
		c12.52-4.83,22.42-14.72,27.24-27.24c1.96-5.06,4.3-12.66,4.94-26.65c0.69-15.14,0.84-19.68,0.84-58.01
		c0-38.33-0.14-42.87-0.84-58.01C365.89,178,363.55,170.39,361.59,165.34z M249.68,323.72c-40.71,0-73.72-33-73.72-73.72
		s33-73.72,73.72-73.72c40.71,0,73.72,33,73.72,73.72S290.39,323.72,249.68,323.72z M326.31,190.6c-9.51,0-17.23-7.71-17.23-17.23
		s7.71-17.23,17.23-17.23s17.23,7.71,17.23,17.23C343.53,182.88,335.82,190.6,326.31,190.6z"/>
	<path class="st0" d="M249.68,0c-138.05,0-250,111.95-250,250s111.95,250,250,250s250-111.95,250-250S387.73,0,249.68,0z
		 M392.37,309.19c-0.69,15.28-3.12,25.71-6.67,34.85c-7.46,19.28-22.7,34.53-41.98,41.98c-9.13,3.55-19.57,5.97-34.84,6.67
		c-15.31,0.7-20.2,0.87-59.19,0.87c-38.99,0-43.88-0.17-59.19-0.87c-15.28-0.7-25.71-3.12-34.84-6.67
		c-9.58-3.6-18.26-9.25-25.43-16.56c-7.3-7.17-12.95-15.85-16.56-25.42c-3.55-9.13-5.98-19.57-6.67-34.84
		c-0.71-15.31-0.87-20.2-0.87-59.19s0.16-43.88,0.87-59.19c0.69-15.28,3.12-25.71,6.67-34.85c3.6-9.58,9.26-18.26,16.56-25.42
		c7.17-7.31,15.85-12.95,25.42-16.56c9.13-3.55,19.57-5.97,34.85-6.67c15.31-0.7,20.2-0.87,59.19-0.87s43.88,0.17,59.19,0.87
		c15.28,0.69,25.71,3.12,34.85,6.66c9.58,3.6,18.26,9.26,25.43,16.56c7.3,7.17,12.95,15.85,16.56,25.42
		c3.55,9.13,5.98,19.57,6.68,34.85c0.7,15.31,0.86,20.2,0.86,59.19S393.07,293.88,392.37,309.19z"/>
</g>
</svg>
