<svg xmlns="http://www.w3.org/2000/svg" viewBox="0 0 56 23.61"><defs><style>.cls-1{fill:#fff;}</style></defs><g id="レイヤー_2" data-name="レイヤー 2"><g id="レイヤー_1-2" data-name="レイヤー 1"><path class="cls-1" d="M20.9,19.1H18.78V17.86a3.12,3.12,0,0,1-2.23,1.4,1.34,1.34,0,0,1-1.34-.87A5.21,5.21,0,0,1,15,16.72v-9h2.12V17c.05.3.18.42.45.42s.78-.37,1.23-1V7.7h2.12V19.1M13.4,11.42a4.52,4.52,0,0,0-.66-2.7,2.75,2.75,0,0,0-2.35-1.1A2.6,2.6,0,0,0,8,8.72a4.49,4.49,0,0,0-.67,2.7v4.07A4.15,4.15,0,0,0,8,18.09a2.89,2.89,0,0,0,2.37,1.2,3,3,0,0,0,2.4-1.2,4.45,4.45,0,0,0,.6-2.6V11.4Zm-2.1,4.3c.1,1.13-.25,1.7-.9,1.7s-1-.57-.9-1.7V11.2c-.1-1.13.24-1.66.9-1.66s1,.53.9,1.66ZM5,12.9v6.2H2.8V12.9S.47,5.26,0,3.84H2.35l1.57,6,1.56-6H7.82l-2.8,9"/><path class="cls-1" d="M42.74,9.5a1.68,1.68,0,0,0-1.05.52v6.86a1.48,1.48,0,0,0,1,.5c.6,0,.85-.42.85-1.55V11c0-1.13-.27-1.46-.86-1.46m8.36,1.36c0-1-.27-1.36-.94-1.36s-1,.3-1,1.35v1.25h1.9V10.88"/><path class="cls-1" d="M55.67,5.08a7.36,7.36,0,0,0-1.33-3.33A4.67,4.67,0,0,0,51,.33C46.33,0,39.32,0,39.32,0h0s-7,0-11.67.33a4.76,4.76,0,0,0-3.35,1.42A7.26,7.26,0,0,0,23,5.08a50.27,50.27,0,0,0-.34,5.44v2.55A50,50,0,0,0,23,18.5a7.28,7.28,0,0,0,1.32,3.34A5.56,5.56,0,0,0,28,23.27c2.67.26,11.35.34,11.35.34s7,0,11.7-.34a4.75,4.75,0,0,0,3.34-1.42,7.34,7.34,0,0,0,1.33-3.34A53.1,53.1,0,0,0,56,13.07V10.52A51.76,51.76,0,0,0,55.67,5.08ZM30,19.1H27.72V6.1H25.37V4h7V6.1H30v13Zm8.05,0H35.88V17.86a3.12,3.12,0,0,1-2.23,1.4,1.34,1.34,0,0,1-1.34-.87,5.21,5.21,0,0,1-.22-1.67V7.8h2.12V17c0,.3.18.42.45.42s.78-.37,1.23-1V7.8H38Zm7.7-3.38A9.32,9.32,0,0,1,45.5,18a1.68,1.68,0,0,1-1.67,1.27A2.9,2.9,0,0,1,41.69,18v1.14h-2V4h2V8.9a2.94,2.94,0,0,1,2.15-1.27,1.62,1.62,0,0,1,1.6,1.3,7.61,7.61,0,0,1,.28,2.27Zm4.46,1.67a.87.87,0,0,0,.9-.83c0-.1,0-.6,0-1.42H53.2v.32a12.51,12.51,0,0,1-.07,1.33A3,3,0,0,1,52.66,18a2.8,2.8,0,0,1-2.45,1.22,2.87,2.87,0,0,1-2.44-1.16,4.21,4.21,0,0,1-.7-2.6v-4a4.65,4.65,0,0,1,.68-2.72,2.9,2.9,0,0,1,2.42-1.18,2.83,2.83,0,0,1,2.4,1.18,4.69,4.69,0,0,1,.65,2.67V13.8h-4v2c0,1.05.3,1.57,1,1.57Z"/></g></g></svg>